<?xml version="1.0" standalone="no"?>
<svg xmlns:xlink="http://www.w3.org/1999/xlink" id="wave" style="transform:rotate(180deg); transition: 0.3s" viewBox="0 0 1440 490" version="1.1" xmlns="http://www.w3.org/2000/svg"><defs><linearGradient id="sw-gradient-0" x1="0" x2="0" y1="1" y2="0"><stop stop-color="rgba(1, 4, 7, 1)" offset="0%"/><stop stop-color="rgba(47, 110, 189, 1)" offset="100%"/></linearGradient></defs><path style="transform:translate(0, 0px); opacity:1" fill="url(#sw-gradient-0)" d="M0,0L60,32.7C120,65,240,131,360,204.2C480,278,600,359,720,359.3C840,359,960,278,1080,204.2C1200,131,1320,65,1440,98C1560,131,1680,261,1800,310.3C1920,359,2040,327,2160,334.8C2280,343,2400,392,2520,383.8C2640,376,2760,310,2880,245C3000,180,3120,114,3240,98C3360,82,3480,114,3600,114.3C3720,114,3840,82,3960,122.5C4080,163,4200,278,4320,294C4440,310,4560,229,4680,228.7C4800,229,4920,310,5040,310.3C5160,310,5280,229,5400,179.7C5520,131,5640,114,5760,106.2C5880,98,6000,98,6120,114.3C6240,131,6360,163,6480,155.2C6600,147,6720,98,6840,81.7C6960,65,7080,82,7200,106.2C7320,131,7440,163,7560,163.3C7680,163,7800,131,7920,98C8040,65,8160,33,8280,65.3C8400,98,8520,196,8580,245L8640,294L8640,490L8580,490C8520,490,8400,490,8280,490C8160,490,8040,490,7920,490C7800,490,7680,490,7560,490C7440,490,7320,490,7200,490C7080,490,6960,490,6840,490C6720,490,6600,490,6480,490C6360,490,6240,490,6120,490C6000,490,5880,490,5760,490C5640,490,5520,490,5400,490C5280,490,5160,490,5040,490C4920,490,4800,490,4680,490C4560,490,4440,490,4320,490C4200,490,4080,490,3960,490C3840,490,3720,490,3600,490C3480,490,3360,490,3240,490C3120,490,3000,490,2880,490C2760,490,2640,490,2520,490C2400,490,2280,490,2160,490C2040,490,1920,490,1800,490C1680,490,1560,490,1440,490C1320,490,1200,490,1080,490C960,490,840,490,720,490C600,490,480,490,360,490C240,490,120,490,60,490L0,490Z"/><defs><linearGradient id="sw-gradient-1" x1="0" x2="0" y1="1" y2="0"><stop stop-color="rgba(1, 4, 7, 1)" offset="0%"/><stop stop-color="rgba(47, 110, 189, 1)" offset="100%"/></linearGradient></defs><path style="transform:translate(0, 50px); opacity:0.9" fill="url(#sw-gradient-1)" d="M0,147L60,122.5C120,98,240,49,360,24.5C480,0,600,0,720,0C840,0,960,0,1080,65.3C1200,131,1320,261,1440,285.8C1560,310,1680,229,1800,204.2C1920,180,2040,212,2160,212.3C2280,212,2400,180,2520,171.5C2640,163,2760,180,2880,204.2C3000,229,3120,261,3240,285.8C3360,310,3480,327,3600,302.2C3720,278,3840,212,3960,187.8C4080,163,4200,180,4320,187.8C4440,196,4560,196,4680,187.8C4800,180,4920,163,5040,196C5160,229,5280,310,5400,343C5520,376,5640,359,5760,326.7C5880,294,6000,245,6120,261.3C6240,278,6360,359,6480,351.2C6600,343,6720,245,6840,220.5C6960,196,7080,245,7200,285.8C7320,327,7440,359,7560,383.8C7680,408,7800,425,7920,392C8040,359,8160,278,8280,212.3C8400,147,8520,98,8580,73.5L8640,49L8640,490L8580,490C8520,490,8400,490,8280,490C8160,490,8040,490,7920,490C7800,490,7680,490,7560,490C7440,490,7320,490,7200,490C7080,490,6960,490,6840,490C6720,490,6600,490,6480,490C6360,490,6240,490,6120,490C6000,490,5880,490,5760,490C5640,490,5520,490,5400,490C5280,490,5160,490,5040,490C4920,490,4800,490,4680,490C4560,490,4440,490,4320,490C4200,490,4080,490,3960,490C3840,490,3720,490,3600,490C3480,490,3360,490,3240,490C3120,490,3000,490,2880,490C2760,490,2640,490,2520,490C2400,490,2280,490,2160,490C2040,490,1920,490,1800,490C1680,490,1560,490,1440,490C1320,490,1200,490,1080,490C960,490,840,490,720,490C600,490,480,490,360,490C240,490,120,490,60,490L0,490Z"/><defs><linearGradient id="sw-gradient-2" x1="0" x2="0" y1="1" y2="0"><stop stop-color="rgba(1, 4, 7, 1)" offset="0%"/><stop stop-color="rgba(47, 110, 189, 1)" offset="100%"/></linearGradient></defs><path style="transform:translate(0, 100px); opacity:0.8" fill="url(#sw-gradient-2)" d="M0,49L60,89.8C120,131,240,212,360,253.2C480,294,600,294,720,245C840,196,960,98,1080,49C1200,0,1320,0,1440,32.7C1560,65,1680,131,1800,187.8C1920,245,2040,294,2160,285.8C2280,278,2400,212,2520,155.2C2640,98,2760,49,2880,89.8C3000,131,3120,261,3240,277.7C3360,294,3480,196,3600,138.8C3720,82,3840,65,3960,57.2C4080,49,4200,49,4320,106.2C4440,163,4560,278,4680,334.8C4800,392,4920,392,5040,351.2C5160,310,5280,229,5400,204.2C5520,180,5640,212,5760,220.5C5880,229,6000,212,6120,171.5C6240,131,6360,65,6480,32.7C6600,0,6720,0,6840,32.7C6960,65,7080,131,7200,155.2C7320,180,7440,163,7560,138.8C7680,114,7800,82,7920,89.8C8040,98,8160,147,8280,138.8C8400,131,8520,65,8580,32.7L8640,0L8640,490L8580,490C8520,490,8400,490,8280,490C8160,490,8040,490,7920,490C7800,490,7680,490,7560,490C7440,490,7320,490,7200,490C7080,490,6960,490,6840,490C6720,490,6600,490,6480,490C6360,490,6240,490,6120,490C6000,490,5880,490,5760,490C5640,490,5520,490,5400,490C5280,490,5160,490,5040,490C4920,490,4800,490,4680,490C4560,490,4440,490,4320,490C4200,490,4080,490,3960,490C3840,490,3720,490,3600,490C3480,490,3360,490,3240,490C3120,490,3000,490,2880,490C2760,490,2640,490,2520,490C2400,490,2280,490,2160,490C2040,490,1920,490,1800,490C1680,490,1560,490,1440,490C1320,490,1200,490,1080,490C960,490,840,490,720,490C600,490,480,490,360,490C240,490,120,490,60,490L0,490Z"/></svg>