<?xml version="1.0" standalone="no"?>
<svg xmlns:xlink="http://www.w3.org/1999/xlink" id="wave" style="transform:rotate(180deg); transition: 0.3s" viewBox="0 0 1440 490" version="1.1" xmlns="http://www.w3.org/2000/svg"><defs><linearGradient id="sw-gradient-0" x1="0" x2="0" y1="1" y2="0"><stop stop-color="rgba(243, 106, 62, 1)" offset="0%"/><stop stop-color="rgba(255, 175.574, 0, 1)" offset="100%"/></linearGradient></defs><path style="transform:translate(0, 0px); opacity:1" fill="url(#sw-gradient-0)" d="M0,147L60,155.2C120,163,240,180,360,220.5C480,261,600,327,720,310.3C840,294,960,196,1080,204.2C1200,212,1320,327,1440,351.2C1560,376,1680,310,1800,253.2C1920,196,2040,147,2160,171.5C2280,196,2400,294,2520,343C2640,392,2760,392,2880,375.7C3000,359,3120,327,3240,294C3360,261,3480,229,3600,212.3C3720,196,3840,196,3960,212.3C4080,229,4200,261,4320,285.8C4440,310,4560,327,4680,302.2C4800,278,4920,212,5040,187.8C5160,163,5280,180,5400,155.2C5520,131,5640,65,5760,32.7C5880,0,6000,0,6120,24.5C6240,49,6360,98,6480,98C6600,98,6720,49,6840,24.5C6960,0,7080,0,7200,16.3C7320,33,7440,65,7560,114.3C7680,163,7800,229,7920,228.7C8040,229,8160,163,8280,179.7C8400,196,8520,294,8580,343L8640,392L8640,490L8580,490C8520,490,8400,490,8280,490C8160,490,8040,490,7920,490C7800,490,7680,490,7560,490C7440,490,7320,490,7200,490C7080,490,6960,490,6840,490C6720,490,6600,490,6480,490C6360,490,6240,490,6120,490C6000,490,5880,490,5760,490C5640,490,5520,490,5400,490C5280,490,5160,490,5040,490C4920,490,4800,490,4680,490C4560,490,4440,490,4320,490C4200,490,4080,490,3960,490C3840,490,3720,490,3600,490C3480,490,3360,490,3240,490C3120,490,3000,490,2880,490C2760,490,2640,490,2520,490C2400,490,2280,490,2160,490C2040,490,1920,490,1800,490C1680,490,1560,490,1440,490C1320,490,1200,490,1080,490C960,490,840,490,720,490C600,490,480,490,360,490C240,490,120,490,60,490L0,490Z"/><defs><linearGradient id="sw-gradient-1" x1="0" x2="0" y1="1" y2="0"><stop stop-color="rgba(243, 106, 62, 1)" offset="0%"/><stop stop-color="rgba(255, 179, 11, 1)" offset="100%"/></linearGradient></defs><path style="transform:translate(0, 50px); opacity:0.9" fill="url(#sw-gradient-1)" d="M0,392L60,343C120,294,240,196,360,163.3C480,131,600,163,720,196C840,229,960,261,1080,269.5C1200,278,1320,261,1440,253.2C1560,245,1680,245,1800,220.5C1920,196,2040,147,2160,179.7C2280,212,2400,327,2520,383.8C2640,441,2760,441,2880,416.5C3000,392,3120,343,3240,334.8C3360,327,3480,359,3600,318.5C3720,278,3840,163,3960,155.2C4080,147,4200,245,4320,302.2C4440,359,4560,376,4680,318.5C4800,261,4920,131,5040,65.3C5160,0,5280,0,5400,65.3C5520,131,5640,261,5760,318.5C5880,376,6000,359,6120,367.5C6240,376,6360,408,6480,351.2C6600,294,6720,147,6840,106.2C6960,65,7080,131,7200,130.7C7320,131,7440,65,7560,89.8C7680,114,7800,229,7920,253.2C8040,278,8160,212,8280,220.5C8400,229,8520,310,8580,351.2L8640,392L8640,490L8580,490C8520,490,8400,490,8280,490C8160,490,8040,490,7920,490C7800,490,7680,490,7560,490C7440,490,7320,490,7200,490C7080,490,6960,490,6840,490C6720,490,6600,490,6480,490C6360,490,6240,490,6120,490C6000,490,5880,490,5760,490C5640,490,5520,490,5400,490C5280,490,5160,490,5040,490C4920,490,4800,490,4680,490C4560,490,4440,490,4320,490C4200,490,4080,490,3960,490C3840,490,3720,490,3600,490C3480,490,3360,490,3240,490C3120,490,3000,490,2880,490C2760,490,2640,490,2520,490C2400,490,2280,490,2160,490C2040,490,1920,490,1800,490C1680,490,1560,490,1440,490C1320,490,1200,490,1080,490C960,490,840,490,720,490C600,490,480,490,360,490C240,490,120,490,60,490L0,490Z"/><defs><linearGradient id="sw-gradient-2" x1="0" x2="0" y1="1" y2="0"><stop stop-color="rgba(243, 106, 62, 1)" offset="0%"/><stop stop-color="rgba(255, 179, 11, 1)" offset="100%"/></linearGradient></defs><path style="transform:translate(0, 100px); opacity:0.8" fill="url(#sw-gradient-2)" d="M0,0L60,57.2C120,114,240,229,360,236.8C480,245,600,147,720,155.2C840,163,960,278,1080,285.8C1200,294,1320,196,1440,179.7C1560,163,1680,229,1800,220.5C1920,212,2040,131,2160,106.2C2280,82,2400,114,2520,179.7C2640,245,2760,343,2880,334.8C3000,327,3120,212,3240,212.3C3360,212,3480,327,3600,310.3C3720,294,3840,147,3960,147C4080,147,4200,294,4320,351.2C4440,408,4560,376,4680,310.3C4800,245,4920,147,5040,89.8C5160,33,5280,16,5400,32.7C5520,49,5640,98,5760,163.3C5880,229,6000,310,6120,302.2C6240,294,6360,196,6480,204.2C6600,212,6720,327,6840,343C6960,359,7080,278,7200,245C7320,212,7440,229,7560,245C7680,261,7800,278,7920,277.7C8040,278,8160,261,8280,245C8400,229,8520,212,8580,204.2L8640,196L8640,490L8580,490C8520,490,8400,490,8280,490C8160,490,8040,490,7920,490C7800,490,7680,490,7560,490C7440,490,7320,490,7200,490C7080,490,6960,490,6840,490C6720,490,6600,490,6480,490C6360,490,6240,490,6120,490C6000,490,5880,490,5760,490C5640,490,5520,490,5400,490C5280,490,5160,490,5040,490C4920,490,4800,490,4680,490C4560,490,4440,490,4320,490C4200,490,4080,490,3960,490C3840,490,3720,490,3600,490C3480,490,3360,490,3240,490C3120,490,3000,490,2880,490C2760,490,2640,490,2520,490C2400,490,2280,490,2160,490C2040,490,1920,490,1800,490C1680,490,1560,490,1440,490C1320,490,1200,490,1080,490C960,490,840,490,720,490C600,490,480,490,360,490C240,490,120,490,60,490L0,490Z"/></svg>