<?xml version="1.0" standalone="no"?>
<!DOCTYPE svg PUBLIC "-//W3C//DTD SVG 20010904//EN"
 "http://www.w3.org/TR/2001/REC-SVG-20010904/DTD/svg10.dtd">
<svg version="1.0" xmlns="http://www.w3.org/2000/svg"
 width="512.000000pt" height="512.000000pt" viewBox="0 0 512.000000 512.000000"
 preserveAspectRatio="xMidYMid meet">

<g transform="translate(0.000000,512.000000) scale(0.100000,-0.100000)"
fill='brown' stroke="none">
<path d="M2222 5109 c-327 -54 -592 -302 -678 -634 -14 -54 -18 -109 -18 -245
-1 -169 0 -177 26 -230 24 -51 26 -68 31 -215 6 -183 24 -268 87 -402 97 -207
238 -355 440 -462 l90 -47 -33 -32 c-51 -50 -106 -67 -382 -122 -296 -59 -337
-73 -440 -141 -119 -80 -202 -191 -252 -338 -21 -62 -27 -101 -31 -213 l-5
-138 -61 -34 c-145 -81 -215 -143 -598 -525 -268 -268 -389 -395 -394 -415
-16 -65 57 -136 124 -120 18 5 161 140 422 399 234 233 421 409 458 434 205
137 485 210 702 182 148 -19 287 -79 390 -168 90 -79 55 -73 452 -73 228 0
367 -4 385 -11 87 -32 135 -139 102 -226 -11 -31 -53 -78 -84 -96 -14 -9 -150
-14 -453 -17 l-434 -5 -24 -28 c-36 -42 -33 -99 6 -138 l30 -30 512 4 c471 4
521 6 609 25 298 64 554 190 764 376 37 32 197 201 357 375 183 200 304 324
330 339 153 83 328 -93 244 -246 -22 -40 -717 -782 -806 -860 -191 -167 -464
-313 -699 -372 -96 -25 -132 -110 -72 -171 41 -40 83 -38 232 11 257 84 508
230 698 406 108 99 790 834 816 879 113 192 33 441 -171 537 -122 57 -258 47
-369 -26 -28 -19 -136 -129 -250 -254 -110 -121 -203 -221 -207 -221 -5 -1 -8
68 -8 152 0 120 -4 171 -20 231 -52 204 -191 362 -389 442 -32 13 -181 48
-331 78 -200 41 -282 61 -313 79 -41 25 -84 64 -76 70 2 2 42 24 87 48 245
129 429 364 498 634 22 88 26 134 36 395 13 349 7 398 -66 545 -72 145 -182
259 -320 331 -31 16 -91 63 -134 104 -92 90 -183 141 -303 170 -70 16 -115 20
-269 19 -102 -1 -209 -5 -238 -10z m461 -204 c104 -27 225 -106 258 -167 24
-45 -59 -156 -154 -205 -50 -25 -62 -27 -252 -34 -213 -7 -260 -16 -368 -67
-126 -59 -217 -144 -311 -289 -48 -75 -72 -91 -106 -73 -29 15 -33 47 -27 194
8 195 55 321 167 449 74 85 216 167 332 192 90 19 387 19 461 0z m529 -364
c106 -112 148 -219 148 -379 0 -92 0 -93 -22 -87 -42 13 -115 65 -166 119 -56
59 -103 146 -122 223 -12 52 -12 54 22 105 19 29 38 61 41 71 11 30 33 19 99
-52z m-328 -263 c70 -171 186 -295 351 -374 38 -19 80 -34 94 -34 l24 0 -7
-97 c-16 -236 -91 -400 -250 -551 -142 -134 -301 -201 -501 -209 -100 -4 -135
-2 -209 16 -229 55 -422 208 -525 416 -53 106 -71 178 -78 305 l-6 106 61 17
c77 21 120 58 187 162 58 90 140 172 205 205 93 48 119 52 325 60 132 5 215
13 245 23 25 8 49 14 53 13 5 -1 18 -27 31 -58z m-146 -1483 c5 -11 31 -44 57
-73 46 -51 47 -53 30 -72 -34 -37 -111 -79 -175 -96 -117 -30 -239 0 -328 81
l-41 37 36 36 c19 21 46 53 59 72 l23 35 165 0 c155 0 166 -1 174 -20z m-577
-284 c222 -225 569 -227 797 -4 l73 71 264 -53 c183 -36 281 -61 318 -79 109
-53 192 -150 228 -267 17 -53 19 -94 19 -323 l0 -263 -62 -50 c-80 -64 -183
-130 -276 -177 -77 -39 -280 -111 -289 -103 -2 3 0 22 6 44 37 134 -25 307
-141 390 -24 17 -72 41 -106 52 -57 20 -84 21 -394 21 l-333 0 -75 57 c-95 71
-231 136 -346 165 -146 36 -375 29 -556 -17 l-28 -7 0 58 c0 77 24 175 57 236
34 62 125 148 192 182 37 19 130 43 314 81 144 29 264 53 266 54 1 1 34 -30
72 -68z"/>
<path d="M2389 3481 c-82 -82 7 -198 159 -208 59 -4 74 -1 122 24 101 51 125
126 60 186 -37 33 -86 36 -123 7 -32 -25 -48 -25 -89 0 -48 29 -93 26 -129 -9z"/>
<path d="M1525 590 c-11 -4 -118 -107 -237 -227 -214 -215 -218 -220 -218
-260 0 -57 31 -92 88 -100 l43 -6 202 202 203 201 451 0 c304 0 460 4 476 11
28 13 57 58 57 89 0 33 -26 75 -55 88 -31 14 -977 16 -1010 2z"/>
<path d="M2891 586 c-110 -61 -22 -227 92 -175 27 12 57 58 57 88 0 75 -83
124 -149 87z"/>
</g>
</svg>
