<?xml version="1.0" standalone="no"?>
<!DOCTYPE svg PUBLIC "-//W3C//DTD SVG 20010904//EN"
 "http://www.w3.org/TR/2001/REC-SVG-20010904/DTD/svg10.dtd">
<svg version="1.0" xmlns="http://www.w3.org/2000/svg"
 width="512.000000pt" height="512.000000pt" viewBox="0 0 512.000000 512.000000"
 preserveAspectRatio="xMidYMid meet">

<g transform="translate(0.000000,512.000000) scale(0.100000,-0.100000)"
fill='#000' stroke="none">
<path d="M2375 5106 c-240 -40 -416 -122 -567 -264 -249 -235 -352 -536 -351
-1032 1 -372 60 -651 189 -899 169 -327 433 -505 800 -542 201 -21 401 11 572
91 199 93 360 257 471 479 44 86 106 275 130 396 53 266 56 674 6 923 -78 388
-317 673 -665 794 -160 56 -426 80 -585 54z m420 -305 c329 -87 516 -321 566
-706 19 -149 17 -476 -5 -610 -74 -461 -261 -724 -577 -811 -48 -14 -103 -18
-219 -19 -174 0 -259 18 -375 78 -85 44 -218 180 -274 281 -121 214 -180 525
-168 881 12 355 80 557 241 720 104 105 229 169 391 201 103 19 318 12 420
-15z"/>
<path d="M1770 2352 c-19 -11 -78 -45 -130 -77 -206 -126 -464 -240 -710 -315
-150 -45 -232 -91 -316 -176 -160 -161 -226 -379 -227 -749 -1 -294 26 -452
88 -510 46 -44 262 -152 455 -228 872 -345 1968 -391 2902 -123 339 97 755
280 828 363 72 81 100 494 55 788 -39 250 -140 430 -301 535 -71 47 -133 72
-304 125 -206 65 -430 168 -640 295 -93 57 -148 84 -175 87 -106 11 -186 -103
-140 -201 45 -95 523 -344 865 -451 80 -25 169 -57 197 -71 101 -50 175 -162
210 -315 14 -59 17 -123 17 -314 -1 -132 -5 -253 -10 -269 -7 -22 -26 -37 -74
-62 -391 -202 -924 -343 -1454 -385 -219 -17 -696 -6 -896 21 -468 62 -890
184 -1228 354 l-91 46 -8 47 c-4 27 -8 147 -7 268 1 245 12 321 63 431 56 120
131 179 281 223 165 48 345 120 535 216 250 125 376 205 406 258 67 121 -68
254 -191 189z"/>
</g>
</svg>
