<?xml version="1.0" standalone="no"?>
<!DOCTYPE svg PUBLIC "-//W3C//DTD SVG 20010904//EN"
 "http://www.w3.org/TR/2001/REC-SVG-20010904/DTD/svg10.dtd">
<svg version="1.0" xmlns="http://www.w3.org/2000/svg"
 width="200.000000pt" height="200.000000pt" viewBox="0 0 200.000000 200.000000"
 preserveAspectRatio="xMidYMid meet">

<g transform="translate(0.000000,200.000000) scale(0.100000,-0.100000)"
fill="#1a74fc" stroke="none">
<path d="M1003 1465 c-145 -97 -263 -180 -263 -185 0 -5 118 -88 263 -185
l262 -175 3 116 3 117 132 -6 c73 -4 160 -13 195 -22 116 -28 235 -103 284
-180 l20 -30 -7 53 c-14 119 -75 223 -176 297 -100 74 -225 124 -366 148 l-78
13 -5 107 -5 107 -262 -175z"/>
<path d="M105 1032 c8 -71 38 -147 80 -204 83 -113 269 -209 468 -242 l72 -12
5 -107 5 -108 262 176 c145 97 263 180 263 185 0 5 -118 88 -262 185 l-263
175 -3 -116 -3 -117 -132 6 c-73 4 -160 13 -195 22 -116 28 -235 103 -284 180
l-20 30 7 -53z"/>
</g>
</svg>
