<?xml version="1.0" standalone="no"?>
<!DOCTYPE svg PUBLIC "-//W3C//DTD SVG 20010904//EN"
 "http://www.w3.org/TR/2001/REC-SVG-20010904/DTD/svg10.dtd">
<svg version="1.0" xmlns="http://www.w3.org/2000/svg"
 width="512.000000pt" height="512.000000pt" viewBox="0 0 512.000000 512.000000"
 preserveAspectRatio="xMidYMid meet">

<g transform="translate(0.000000,512.000000) scale(0.100000,-0.100000)"
fill="#1a74fc" stroke="none">
<path d="M2955 4876 c-16 -8 -145 -129 -285 -270 l-254 -256 -121 119 c-96 95
-127 121 -157 126 -98 18 -178 -47 -178 -145 0 -23 6 -53 14 -68 8 -15 95
-107 193 -204 148 -146 184 -178 215 -183 80 -15 82 -14 426 329 178 176 330
333 338 348 8 15 14 47 14 71 0 105 -110 176 -205 133z"/>
<path d="M2410 3664 c-243 -52 -448 -220 -541 -444 -182 -434 79 -927 541
-1024 72 -15 71 -15 -60 -36 -168 -27 -368 -114 -510 -221 -227 -171 -383
-414 -452 -699 -19 -77 -21 -125 -25 -486 -4 -392 -4 -403 16 -443 14 -27 35
-48 61 -61 39 -20 57 -20 1120 -20 1063 0 1081 0 1120 20 26 13 47 34 61 61
20 40 20 51 16 443 -4 361 -6 409 -25 486 -69 285 -225 528 -452 699 -142 107
-345 195 -510 221 -130 20 -132 21 -60 36 295 62 524 291 584 586 107 521
-367 994 -884 882z"/>
<path d="M739 3056 c-447 -124 -594 -670 -269 -997 84 -84 182 -140 281 -161
61 -12 79 -28 32 -28 -43 0 -152 -30 -234 -65 -200 -84 -389 -272 -471 -467
-65 -155 -71 -195 -76 -529 -4 -296 -3 -308 17 -348 14 -27 35 -48 61 -61 38
-19 58 -20 509 -20 l469 0 5 398 c4 362 6 406 26 497 33 148 75 266 141 394
33 63 57 117 55 122 -12 19 -170 67 -280 85 l-40 6 73 19 c109 28 187 73 272
159 121 121 175 252 174 425 -1 267 -183 501 -444 570 -67 18 -237 18 -301 1z"/>
<path d="M4059 3056 c-303 -84 -495 -386 -435 -687 26 -126 76 -219 166 -309
85 -86 164 -132 272 -159 78 -21 77 -22 -21 -40 -64 -12 -189 -55 -204 -70 -4
-4 20 -59 52 -122 67 -128 109 -246 142 -394 20 -91 22 -135 26 -497 l5 -398
469 0 c451 0 471 1 509 20 26 13 47 34 61 61 20 40 21 52 17 353 -5 357 -12
398 -93 563 -133 270 -377 443 -700 498 l-40 7 73 19 c109 28 187 73 272 159
121 121 175 252 174 425 -1 267 -183 501 -444 570 -67 18 -237 18 -301 1z"/>
</g>
</svg>
