<?xml version="1.0" standalone="no"?>
<!DOCTYPE svg PUBLIC "-//W3C//DTD SVG 20010904//EN"
 "http://www.w3.org/TR/2001/REC-SVG-20010904/DTD/svg10.dtd">
<svg version="1.0" xmlns="http://www.w3.org/2000/svg"
 width="200.000000pt" height="200.000000pt" viewBox="0 0 200.000000 200.000000"
 preserveAspectRatio="xMidYMid meet">

<g transform="translate(0.000000,200.000000) scale(0.100000,-0.100000)"
fill="#1a74fc" stroke="none">
<path d="M902 1893 c-29 -6 -38 -25 -47 -98 -4 -33 -9 -63 -12 -68 -2 -4 -33
13 -68 39 -49 34 -70 44 -86 39 -34 -11 -159 -141 -159 -165 0 -12 20 -50 45
-84 l45 -64 -77 -11 c-51 -7 -82 -17 -90 -28 -19 -25 -18 -217 1 -236 8 -8 49
-20 91 -26 l76 -13 -27 -36 c-15 -20 -36 -48 -46 -61 -10 -13 -18 -32 -18 -41
0 -26 71 -110 125 -149 l47 -34 66 46 c36 25 69 44 73 41 4 -2 11 -34 14 -70
4 -36 14 -71 21 -79 27 -27 201 -31 242 -6 7 4 18 40 25 80 7 40 15 73 19 74
4 1 37 -18 72 -42 l65 -44 51 39 c58 44 120 119 120 144 0 10 -8 28 -18 41
-10 13 -31 41 -46 61 l-27 36 74 12 c41 7 81 16 88 21 20 12 26 217 7 241 -9
12 -39 22 -90 30 l-77 11 44 63 c25 34 45 72 45 84 0 24 -125 154 -159 165
-16 5 -37 -5 -86 -39 -35 -26 -66 -43 -69 -38 -2 4 -8 36 -12 70 -10 92 -15
96 -125 98 -52 1 -104 0 -117 -3z m175 -137 c7 -38 20 -77 29 -88 29 -31 78
-23 137 21 l51 39 28 -19 c15 -11 36 -33 48 -49 l20 -29 -40 -57 c-44 -64 -49
-91 -21 -125 13 -17 36 -25 87 -34 l69 -11 3 -66 c3 -74 11 -67 -93 -84 -50
-8 -85 -39 -85 -74 0 -15 18 -51 41 -84 l41 -58 -43 -44 c-24 -24 -47 -44 -52
-44 -5 0 -34 18 -64 40 -65 46 -82 49 -118 18 -20 -18 -28 -39 -37 -90 -10
-64 -12 -66 -44 -73 -19 -3 -49 -3 -68 0 -32 7 -34 9 -44 73 -9 51 -17 72 -37
90 -36 31 -53 28 -118 -18 -30 -22 -59 -40 -64 -40 -5 0 -28 20 -52 44 l-43
44 41 58 c23 33 41 69 41 84 0 35 -35 66 -85 74 -104 17 -96 10 -93 84 l3 66
69 11 c51 9 74 17 87 34 28 34 23 61 -21 125 l-40 57 20 29 c12 16 33 38 48
49 l28 19 51 -39 c59 -44 108 -52 137 -20 9 10 21 47 27 81 5 35 12 67 15 72
3 5 33 8 67 6 l62 -3 12 -69z"/>
<path d="M902 1524 c-59 -29 -88 -65 -108 -132 -39 -129 69 -272 206 -272 92
0 189 78 208 167 22 100 -21 193 -109 237 -69 34 -128 34 -197 0z m157 -59
c51 -26 81 -71 81 -121 0 -139 -151 -203 -245 -104 -23 24 -30 41 -33 87 -3
49 0 63 19 87 48 62 119 82 178 51z"/>
<path d="M112 668 c-17 -17 -17 -539 0 -556 8 -8 53 -12 136 -12 l124 0 11 31
12 31 65 -5 c36 -3 118 -13 182 -21 227 -30 342 -31 458 -7 136 29 308 85 390
126 69 35 270 168 358 237 59 47 66 75 28 113 -52 52 -124 45 -251 -25 -217
-121 -262 -139 -374 -150 -57 -5 -115 -10 -130 -9 l-26 0 25 11 c95 40 172 82
190 105 29 38 26 79 -10 115 -29 28 -34 30 -88 25 -31 -3 -104 -13 -162 -22
-83 -13 -129 -15 -220 -9 -173 12 -327 8 -385 -10 -27 -8 -49 -14 -50 -13 -1
1 -6 14 -13 30 l-12 27 -123 0 c-82 0 -127 -4 -135 -12z m198 -278 l0 -220
-70 0 -70 0 0 220 0 220 70 0 70 0 0 -220z m947 203 c6 -16 -75 -61 -149 -84
-34 -11 -104 -26 -157 -35 -108 -17 -111 -19 -111 -43 0 -30 23 -41 127 -63
80 -16 119 -19 214 -14 189 9 225 22 473 160 73 41 141 64 153 52 14 -13 -192
-160 -327 -234 -90 -48 -249 -102 -391 -132 -119 -25 -200 -23 -467 11 -84 10
-171 19 -192 19 l-40 0 0 154 0 155 58 22 c50 19 73 21 182 19 261 -6 435 -1
495 13 69 17 127 17 132 0z"/>
</g>
</svg>
