<?xml version="1.0" standalone="no"?>
<!DOCTYPE svg PUBLIC "-//W3C//DTD SVG 20010904//EN"
 "http://www.w3.org/TR/2001/REC-SVG-20010904/DTD/svg10.dtd">
<svg version="1.0" xmlns="http://www.w3.org/2000/svg"
 width="1624.000000pt" height="1444.000000pt" viewBox="0 0 1624.000000 1444.000000"
 preserveAspectRatio="xMidYMid meet">

<g transform="translate(0.000000,1444.000000) scale(0.100000,-0.100000)"
fill="#000000" stroke="none">
<path d="M9233 11154 c3 -10 11 -39 17 -64 12 -48 50 -112 103 -172 l32 -38
41 20 c77 39 125 5 132 -91 4 -52 0 -68 -27 -124 -17 -35 -45 -75 -62 -90 -27
-22 -30 -30 -25 -59 11 -57 67 -158 113 -203 77 -74 211 -104 312 -69 61 22
150 87 214 156 140 150 270 400 239 456 -6 11 -36 25 -74 35 -35 9 -268 69
-518 133 -250 64 -466 119 -479 122 -19 6 -22 4 -18 -12z"/>
<path d="M9155 11010 c-8 -12 20 -24 35 -15 5 3 10 10 10 16 0 12 -37 12 -45
-1z"/>
<path d="M5634 10914 c-190 -31 -393 -119 -544 -234 -70 -53 -226 -207 -218
-215 2 -2 15 -6 28 -9 14 -2 228 -43 477 -89 248 -47 464 -92 481 -101 40 -21
97 -77 118 -118 35 -67 30 -140 -35 -481 -67 -352 -77 -383 -154 -437 -23 -16
-46 -33 -52 -38 -5 -4 -41 -9 -80 -10 -72 -3 -91 0 -688 113 -165 31 -301 55
-303 53 -5 -5 49 -144 76 -198 11 -22 25 -38 30 -35 5 3 7 0 5 -7 -7 -17 59
-111 70 -101 4 5 5 2 1 -5 -14 -24 153 -210 175 -196 7 4 9 3 5 -4 -11 -18
143 -129 259 -187 61 -30 162 -69 225 -87 112 -32 120 -33 310 -33 204 0 260
8 403 57 51 17 233 101 245 113 2 2 16 66 31 142 25 122 30 138 47 135 10 -2
76 -13 146 -25 l128 -22 41 -50 c82 -99 118 -133 149 -140 l31 -7 -26 28 c-20
21 -25 37 -25 78 0 28 6 60 14 71 7 11 22 36 33 55 127 225 148 246 232 237
35 -3 82 -26 201 -97 85 -51 223 -132 306 -181 84 -48 169 -99 189 -113 21
-15 41 -26 46 -26 4 0 44 32 89 70 45 39 84 70 86 70 11 0 344 -270 344 -279
0 -5 -25 -28 -55 -52 -30 -24 -54 -46 -55 -49 0 -3 76 -49 170 -103 192 -112
175 -86 185 -262 4 -55 15 -187 26 -294 10 -107 17 -197 14 -199 -2 -3 -35 13
-72 35 -37 23 -192 114 -343 203 -151 89 -295 175 -320 190 -25 15 -79 47
-120 71 l-75 43 -105 -2 c-160 -5 -349 40 -553 129 -51 22 -99 43 -107 46 -8
3 57 -38 145 -91 88 -53 166 -94 173 -91 7 3 11 1 8 -4 -3 -5 65 -51 152 -102
86 -51 227 -134 312 -184 85 -51 174 -103 197 -116 55 -32 173 -102 371 -221
90 -54 165 -98 167 -98 2 0 40 -23 84 -50 45 -28 81 -47 81 -43 0 4 8 -4 17
-17 14 -20 17 -49 18 -165 0 -134 -3 -151 -57 -395 -220 -985 -359 -1848 -383
-2375 -14 -296 30 -974 111 -1730 51 -477 170 -1414 181 -1425 8 -8 513 -24
520 -16 4 4 22 579 39 1279 54 2137 51 2059 99 2387 35 238 121 674 124 624
13 -243 76 -751 121 -977 145 -722 674 -1574 1464 -2357 120 -119 127 -124
149 -111 23 14 405 289 421 302 5 4 -43 63 -106 131 -328 350 -560 672 -732
1017 -207 412 -277 724 -337 1496 -13 173 -24 1355 -13 1355 5 0 71 -38 148
-83 l138 -84 -1 -119 c-2 -120 14 -240 46 -339 26 -82 81 -213 110 -258 62
-98 76 -116 86 -110 6 4 7 1 3 -6 -13 -21 157 -206 178 -194 5 3 6 2 3 -4 -4
-6 13 -25 36 -43 72 -57 72 -57 62 -40 -4 8 3 3 17 -11 28 -30 225 -132 239
-123 5 3 9 1 9 -4 0 -5 33 -18 73 -30 362 -105 731 -49 1046 161 79 52 284
247 266 253 -5 2 -224 43 -485 92 -346 65 -485 95 -510 110 -18 12 -37 19 -42
16 -5 -3 -7 -2 -6 3 4 11 -48 74 -54 67 -3 -2 -5 2 -6 9 -1 6 -9 40 -18 74
l-16 62 41 223 c76 402 83 433 102 478 24 55 51 84 106 117 79 46 116 43 568
-41 226 -42 429 -81 452 -86 23 -6 51 -10 63 -10 20 0 20 1 5 30 -9 17 -13 30
-11 30 9 0 -55 134 -67 142 -7 4 -8 8 -4 8 11 0 -38 84 -92 155 -63 84 -172
195 -184 188 -6 -3 -7 -1 -4 4 12 19 -194 160 -214 147 -7 -4 -9 -3 -6 3 4 6
-23 24 -61 41 -166 76 -279 102 -467 109 -167 6 -272 -7 -414 -52 -97 -31
-261 -110 -261 -127 0 -6 -3 -8 -7 -5 -3 4 -17 0 -31 -9 -20 -13 -29 -14 -55
-3 -18 7 -34 16 -37 19 -6 8 -263 161 -306 183 -17 9 -35 13 -39 9 -5 -4 -5
-1 -1 6 6 11 -5 17 -26 13 -5 0 -8 3 -8 8 0 14 -70 52 -82 45 -7 -5 -8 -2 -3
6 6 10 4 12 -9 7 -9 -4 -15 -3 -12 2 3 4 -57 45 -133 90 l-139 82 -8 197 c-12
258 -9 991 3 1003 6 6 35 -25 77 -82 38 -50 74 -93 82 -96 7 -2 89 46 181 108
157 105 388 264 406 279 4 4 -13 44 -39 91 -170 308 -384 570 -517 633 -29 13
-97 32 -152 42 -55 9 -107 23 -117 31 -12 11 -66 16 -235 21 -389 12 -934 5
-1008 -13 -16 -4 -37 -14 -45 -21 -9 -7 -58 -23 -110 -35 -180 -41 -304 -115
-473 -283 -106 -106 -238 -258 -331 -384 -37 -50 -70 -92 -72 -92 -2 0 -49 27
-105 60 -55 33 -106 57 -112 53 -7 -3 -9 -2 -5 2 11 11 -119 88 -134 79 -6 -4
-8 -3 -4 4 4 6 -13 22 -41 38 -110 63 -391 228 -428 252 -22 14 -45 25 -52 25
-7 0 -13 4 -13 8 0 4 -29 24 -64 44 l-63 37 -6 142 c-11 262 -78 461 -224 669
-30 42 -59 75 -64 72 -5 -4 -6 0 -3 8 6 16 -142 156 -236 222 -243 171 -589
249 -886 199z m3116 -2300 c0 -8 -5 -12 -10 -9 -6 4 -8 11 -5 16 9 14 15 11
15 -7z m1940 -1452 c83 -53 98 -70 106 -118 7 -52 1 -68 -91 -220 -36 -58 -65
-109 -65 -113 0 -12 -53 -46 -84 -53 -17 -4 -48 -2 -69 4 l-39 12 5 175 c2 97
10 235 17 307 l13 131 76 -45 c42 -25 101 -61 131 -80z"/>
<path d="M9119 10856 c-9 -18 -9 -30 -2 -37 7 -7 12 0 17 22 8 41 0 49 -15 15z"/>
<path d="M9046 10644 c-16 -19 -27 -36 -25 -38 10 -9 49 -26 59 -26 6 0 9 19
8 50 -2 27 -5 50 -8 49 -3 0 -18 -16 -34 -35z"/>
<path d="M11826 1870 c-70 -72 -124 -135 -121 -140 10 -16 -69 -12 -91 4 -18
14 -18 15 -1 21 9 4 26 5 37 2 11 -3 18 -1 14 4 -8 14 -50 11 -63 -5 -10 -11
-7 -17 11 -30 12 -9 29 -16 38 -16 10 -1 5 -8 -12 -21 -51 -37 -25 -89 27 -55
13 9 26 16 29 16 3 0 -4 -33 -15 -72 -24 -86 -79 -219 -126 -302 -19 -33 -33
-69 -31 -80 4 -28 46 -48 87 -42 45 7 78 40 224 221 66 83 182 213 259 291
112 113 139 146 136 165 -2 17 -31 41 -118 95 -63 40 -124 73 -136 73 -14 1
-62 -41 -148 -129z m-126 -184 c0 -15 -50 -56 -69 -56 -22 0 -10 40 17 54 35
19 52 20 52 2z"/>
<path d="M8715 770 c-3 -6 1 -7 9 -4 18 7 21 14 7 14 -6 0 -13 -4 -16 -10z"/>
<path d="M8791 733 c13 -26 16 -40 8 -48 -7 -7 -21 2 -46 30 -20 22 -30 32
-23 23 7 -10 10 -24 7 -32 -3 -9 2 -16 15 -19 34 -9 9 -27 -40 -28 -41 -1 -43
-2 -17 -8 l30 -7 -30 -16 c-62 -32 -193 -69 -349 -98 -221 -41 -206 -36 -206
-68 0 -37 25 -71 64 -87 24 -9 149 -12 530 -10 442 1 501 4 510 17 7 11 1 57
-19 153 -17 75 -33 142 -37 148 -5 8 -62 13 -189 14 l-182 2 -13 29 c-6 16
-16 32 -22 36 -5 3 -1 -11 9 -31z"/>
<path d="M8643 694 c-3 -8 -1 -20 5 -26 8 -8 9 -5 5 10 -4 18 0 21 34 25 l38
4 -38 1 c-26 1 -39 -3 -44 -14z"/>
</g>
</svg>
