<?xml version="1.0" standalone="no"?>
<!DOCTYPE svg PUBLIC "-//W3C//DTD SVG 20010904//EN"
 "http://www.w3.org/TR/2001/REC-SVG-20010904/DTD/svg10.dtd">
<svg version="1.0" xmlns="http://www.w3.org/2000/svg"
 width="512.000000pt" height="512.000000pt" viewBox="0 0 512.000000 512.000000"
 preserveAspectRatio="xMidYMid meet">

<g transform="translate(0.000000,512.000000) scale(0.100000,-0.100000)"
fill='green' >
<path d="M4510 4969 c-1077 -86 -1700 -460 -1853 -1113 -17 -75 -21 -122 -21
-271 1 -191 9 -254 60 -433 l27 -93 -71 -147 c-38 -81 -89 -198 -113 -260
l-43 -112 -16 27 c-114 190 -183 289 -293 415 l-67 76 0 90 c0 221 -74 444
-200 599 -140 173 -372 288 -652 323 -117 14 -321 12 -478 -5 -176 -20 -429
-71 -452 -92 -10 -9 -18 -29 -18 -45 0 -68 144 -403 256 -594 211 -362 427
-565 684 -645 94 -30 251 -32 350 -6 89 23 250 105 334 169 38 29 77 59 87 66
15 12 25 5 84 -65 93 -108 211 -288 272 -413 l51 -105 -25 -110 c-14 -60 -32
-164 -42 -230 l-17 -120 -108 -7 c-428 -29 -808 -269 -921 -581 l-22 -60 -86
-28 c-232 -76 -408 -214 -495 -388 -50 -99 -66 -172 -60 -273 9 -151 108 -291
255 -361 l68 -32 1435 0 1435 0 75 36 c241 115 320 383 190 639 -101 197 -341
358 -615 410 -33 7 -69 14 -80 16 -14 3 -34 34 -67 102 -98 206 -297 366 -568
456 -58 19 -141 40 -185 46 -44 7 -86 14 -92 16 -18 5 -16 54 7 191 44 257
132 535 245 770 l63 132 85 -39 c160 -75 335 -122 512 -138 429 -39 780 186
1029 659 177 337 317 901 343 1380 9 172 9 171 -287 148z m149 -186 c-5 -32
-18 -130 -29 -218 -118 -915 -450 -1502 -919 -1627 -100 -26 -281 -28 -401 -3
-168 34 -419 132 -404 157 4 7 38 58 75 113 153 225 343 436 557 614 98 81
112 97 112 124 0 41 -26 67 -66 67 -26 0 -52 -16 -131 -81 -204 -169 -407
-389 -556 -602 l-76 -108 -10 38 c-28 98 -43 260 -38 383 27 581 447 962 1237
1120 188 38 449 71 626 79 l31 1 -8 -57z m-3353 -858 c202 -35 341 -101 460
-220 68 -68 89 -97 127 -176 47 -98 72 -182 83 -284 6 -51 5 -58 -7 -49 -197
155 -364 257 -556 338 -70 29 -105 24 -124 -18 -25 -55 -9 -70 148 -146 81
-39 197 -104 258 -145 111 -74 245 -181 245 -196 0 -14 -134 -109 -212 -149
-140 -74 -277 -95 -406 -65 -293 69 -589 423 -808 964 -19 47 -34 88 -34 92 0
7 214 45 325 58 125 15 405 12 501 -4z m1337 -2224 c320 -76 571 -278 627
-504 17 -64 43 -83 128 -90 214 -20 449 -142 557 -288 141 -192 110 -417 -72
-509 l-48 -25 -1404 -3 -1404 -2 -51 23 c-75 35 -111 70 -147 142 -30 60 -31
70 -27 147 6 97 32 165 97 246 83 105 246 201 416 245 100 26 103 29 129 127
46 167 223 343 434 431 226 94 526 117 765 60z"/>
</g>
</svg>
