<?xml version="1.0" standalone="no"?>
<!DOCTYPE svg PUBLIC "-//W3C//DTD SVG 20010904//EN"
 "http://www.w3.org/TR/2001/REC-SVG-20010904/DTD/svg10.dtd">
<svg version="1.0" xmlns="http://www.w3.org/2000/svg"
 width="512.000000pt" height="512.000000pt" viewBox="0 0 512.000000 512.000000"
 preserveAspectRatio="xMidYMid meet">

<g transform="translate(0.000000,512.000000) scale(0.100000,-0.100000)"
fill="#1a74fc" stroke="none">
<path d="M521 4898 c-81 -23 -157 -101 -180 -184 -15 -53 -15 -3893 -1 -3946
18 -63 70 -129 130 -162 l55 -31 1385 0 1385 0 41 22 c53 28 99 74 127 127
l22 41 3 1723 2 1722 -349 0 c-304 0 -352 2 -365 16 -14 13 -16 59 -16 350 l0
334 -1102 -1 c-691 0 -1116 -4 -1137 -11z m57 -210 c18 -18 15 -94 -4 -112
-38 -39 -84 -7 -84 58 0 48 13 66 50 66 14 0 31 -5 38 -12z m-4 -254 c14 -13
16 -63 16 -394 0 -331 -2 -381 -16 -394 -8 -9 -24 -16 -34 -16 -10 0 -26 7
-34 16 -14 13 -16 63 -16 394 0 331 2 381 16 394 8 9 24 16 34 16 10 0 26 -7
34 -16z m878 -51 c9 -10 23 -42 33 -71 13 -40 21 -52 33 -48 110 32 366 33
476 2 220 -62 411 -190 536 -361 65 -88 127 -221 156 -332 37 -139 37 -326 1
-463 -103 -396 -419 -673 -821 -720 -394 -46 -784 167 -961 525 -96 194 -123
413 -79 632 6 30 5 31 -60 53 -86 28 -91 38 -76 148 33 251 172 453 389 565
145 75 337 111 373 70z m764 -2418 c15 -23 15 -27 0 -50 l-16 -25 -648 0
c-491 0 -651 3 -660 12 -15 15 -15 61 0 76 9 9 169 12 660 12 l648 0 16 -25z
m712 -367 c19 -19 15 -66 -7 -78 -30 -16 -2013 -14 -2029 2 -15 15 -15 61 0
76 17 17 2019 17 2036 0z m-284 -374 c9 -8 16 -24 16 -34 0 -10 -7 -26 -16
-34 -14 -14 -107 -16 -878 -16 -657 0 -865 3 -874 12 -15 15 -15 61 0 76 9 9
217 12 874 12 771 0 864 -2 878 -16z"/>
<path d="M1285 4284 c-137 -30 -280 -119 -363 -226 -77 -101 -138 -254 -130
-330 l3 -31 443 -148 c253 -84 442 -142 441 -136 0 7 -67 208 -147 447 -102
303 -152 436 -162 437 -8 1 -46 -5 -85 -13z"/>
<path d="M1593 4178 c-29 -5 -53 -15 -53 -21 0 -7 61 -194 135 -417 75 -223
134 -416 133 -429 -2 -13 -10 -28 -19 -34 -11 -7 -128 28 -433 128 -423 138
-433 140 -437 100 0 -5 -4 -46 -8 -90 -39 -417 230 -797 640 -906 119 -32 300
-32 417 -1 538 144 802 721 555 1217 -110 221 -319 386 -565 445 -91 22 -269
26 -365 8z"/>
<path d="M2860 4576 l0 -266 278 0 277 1 -97 92 c-53 51 -178 170 -277 266
l-181 173 0 -266z"/>
<path d="M3590 2387 c0 -1533 -1 -1598 -19 -1656 -24 -77 -77 -149 -143 -194
-105 -71 -27 -67 -1376 -67 l-1215 0 7 -42 c9 -56 46 -119 93 -157 78 -64 -3
-61 1418 -61 1460 0 1350 -6 1436 80 86 86 80 -72 77 1825 -3 1617 -4 1681
-22 1715 -44 83 -120 137 -207 147 l-49 6 0 -1596z"/>
<path d="M4480 2657 c-48 -15 -126 -95 -139 -143 -6 -22 -11 -99 -11 -171 l0
-133 230 0 230 0 0 133 c-1 84 -6 146 -14 170 -44 121 -172 183 -296 144z"/>
<path d="M4330 1613 c0 -274 -3 -576 -7 -670 l-6 -173 90 0 90 0 7 61 c3 34 6
336 6 670 l0 609 -90 0 -90 0 0 -497z"/>
<path d="M4608 1485 c-1 -344 -2 -644 -3 -667 l0 -43 93 -3 92 -3 0 671 0 670
-90 0 -90 0 -2 -625z"/>
<path d="M4360 665 c0 -10 190 -385 195 -385 5 0 195 375 195 385 0 3 -88 5
-195 5 -107 0 -195 -2 -195 -5z"/>
</g>
</svg>
