<?xml version="1.0" standalone="no"?>
<!DOCTYPE svg PUBLIC "-//W3C//DTD SVG 20010904//EN"
 "http://www.w3.org/TR/2001/REC-SVG-20010904/DTD/svg10.dtd">
<svg version="1.0" xmlns="http://www.w3.org/2000/svg"
 width="1753.000000pt" height="1685.000000pt" viewBox="0 0 1753.000000 1685.000000"
 preserveAspectRatio="xMidYMid meet">

<g transform="translate(0.000000,1685.000000) scale(0.100000,-0.100000)"
fill="#000000" stroke="none">
<path d="M8288 16507 c-61 -18 -94 -40 -113 -78 -19 -36 -12 -82 15 -109 18
-18 16 -19 -48 -30 -37 -6 -105 -29 -152 -52 -110 -53 -229 -168 -278 -269
-38 -80 -44 -165 -14 -192 37 -33 150 -14 234 40 38 23 39 23 28 3 -15 -28
-16 -76 -1 -94 41 -49 218 -4 310 79 l41 37 0 -36 c0 -22 5 -36 12 -36 29 0
179 85 230 130 45 40 58 47 67 36 6 -7 7 -17 3 -21 -4 -5 -1 -5 6 -1 7 4 32
-7 60 -27 47 -34 167 -98 210 -111 19 -6 22 -4 22 19 0 34 18 67 32 59 7 -4 8
-3 4 4 -8 14 23 32 53 29 48 -3 87 -85 75 -154 -5 -25 -2 -34 15 -43 12 -6 18
-16 15 -22 -4 -6 -3 -8 4 -5 15 10 43 -3 35 -16 -3 -6 -1 -7 5 -3 6 4 33 -4
59 -17 71 -35 163 -70 169 -65 2 3 13 57 24 119 34 195 25 262 -44 314 -36 27
-36 28 -36 104 0 52 -6 89 -19 116 -24 54 -82 103 -131 111 -33 5 -41 12 -50
39 -23 69 -105 118 -196 119 -50 0 -75 -7 -127 -32 -35 -18 -78 -32 -95 -32
-17 0 -34 -5 -37 -11 -5 -6 -19 2 -39 22 -71 73 -232 108 -348 76z"/>
<path d="M9360 15511 c0 -6 4 -13 10 -16 6 -3 7 1 4 9 -7 18 -14 21 -14 7z"/>
<path d="M9647 15183 c3 -7 6 -13 8 -13 2 0 5 6 8 13 3 8 -1 14 -8 14 -7 0
-11 -6 -8 -14z"/>
<path d="M10247 14908 c-155 -84 -279 -306 -301 -538 -3 -30 -3 -46 0 -35 28
110 102 314 132 365 52 89 130 171 199 208 32 17 51 31 43 31 -8 0 -41 -14
-73 -31z"/>
<path d="M8867 14558 c-27 -108 -40 -273 -33 -425 11 -243 23 -209 29 82 3
149 10 299 17 334 14 83 7 89 -13 9z"/>
<path d="M9830 14185 c-197 -52 -927 -238 -953 -243 l-29 -5 6 -66 c3 -36 15
-172 26 -301 11 -129 45 -478 76 -775 51 -506 93 -939 164 -1730 36 -399 30
-359 92 -635 38 -174 341 -1396 363 -1470 4 -11 -14 -25 -60 -48 -72 -35 -80
-38 -69 -20 4 7 3 8 -5 4 -6 -4 -9 -11 -7 -15 3 -4 -60 -38 -140 -76 -120 -56
-147 -66 -155 -54 -36 54 -159 314 -155 326 3 8 1 11 -4 8 -6 -4 -76 128 -164
307 -270 551 -325 674 -435 972 -6 15 -32 -9 -151 -135 -186 -199 -222 -239
-300 -329 -36 -41 -67 -77 -70 -80 -3 -3 -48 -57 -101 -120 -463 -555 -798
-1042 -995 -1446 -99 -203 -108 -242 -101 -424 4 -80 9 -155 13 -167 4 -16 23
-29 62 -43 93 -35 412 -182 419 -193 3 -6 1 -7 -5 -3 -6 4 -29 2 -49 -3 -21
-6 -99 -17 -173 -26 -74 -8 -149 -18 -167 -21 l-31 -6 35 -131 c125 -478 339
-1075 673 -1882 64 -156 121 -288 125 -293 2 -3 327 82 730 189 105 28 219 59
255 69 l65 17 -3 664 c-5 968 22 1436 89 1576 22 46 172 202 339 354 58 52
154 139 213 193 59 54 110 97 111 95 2 -2 18 -38 35 -79 96 -227 290 -494 395
-544 73 -34 128 -12 142 58 8 47 -10 150 -47 259 -16 49 -29 90 -29 91 0 2 26
7 57 11 89 11 106 20 98 52 -9 36 -74 127 -168 234 -71 82 -76 89 -91 163 -9
43 -16 84 -16 90 0 7 71 78 158 157 86 79 181 166 210 193 57 55 90 78 77 55
-5 -8 -17 -26 -27 -41 -115 -166 -198 -405 -183 -528 8 -62 43 -141 83 -184
59 -63 252 -166 312 -166 24 0 26 9 -23 -127 l-33 -93 18 -182 c63 -630 209
-1971 322 -2943 99 -845 215 -1817 218 -1820 4 -4 450 -7 858 -6 l316 1 22
288 c182 2295 409 4790 497 5466 67 510 4 1003 -206 1616 -90 263 -160 483
-358 1130 -88 289 -170 556 -182 595 l-21 70 -17 -44 c-15 -42 -15 -55 2 -200
11 -92 17 -203 15 -271 -3 -102 -8 -129 -42 -232 -23 -69 -43 -115 -49 -111
-6 3 -7 1 -3 -5 6 -10 -17 -73 -97 -262 -71 -167 -89 -204 -103 -213 -7 -4
-11 -13 -8 -20 6 -18 -133 -312 -149 -312 -6 0 -11 -9 -10 -20 4 -27 -58 -156
-70 -148 -6 3 -7 1 -3 -5 7 -11 -56 -145 -256 -547 -107 -214 -153 -302 -173
-333 -1 -1 -63 26 -138 61 -75 35 -133 67 -130 71 4 4 -1 4 -11 0 -15 -6 -17
-4 -11 6 5 8 4 11 -3 6 -10 -6 -145 54 -165 73 -5 5 10 71 32 147 142 485 305
1083 375 1374 80 331 90 387 89 500 0 97 -5 126 -68 365 -37 143 -69 269 -70
280 -1 11 -5 27 -9 35 -4 9 -42 141 -86 295 -44 153 -81 279 -82 281 -2 1 -39
-2 -83 -6 -44 -5 -83 -5 -86 -2 -14 15 -449 1353 -449 1381 0 36 2 36 -110 6z"/>
<path d="M9310 8840 c-9 -6 -10 -10 -3 -10 6 0 15 5 18 10 8 12 4 12 -15 0z"/>
<path d="M4395 8573 c-117 -392 -209 -783 -188 -804 6 -6 14 15 23 63 27 159
206 824 255 951 5 11 2 17 -7 17 -10 0 -35 -68 -83 -227z"/>
<path d="M4181 7636 c-48 -58 -78 -653 -46 -948 22 -211 95 -534 148 -659 l15
-34 -5 45 c-3 25 -16 81 -29 126 -40 136 -74 292 -96 439 -38 253 -28 733 22
1003 8 46 8 48 -9 28z"/>
<path d="M4300 5977 c0 -6 86 -233 125 -329 14 -36 33 -69 41 -72 8 -3 14 -4
14 -1 0 17 -144 362 -160 382 -11 14 -20 23 -20 20z"/>
<path d="M4518 5453 c-2 -10 32 -106 75 -213 182 -454 264 -766 298 -1139 18
-201 7 -543 -25 -752 -70 -467 -246 -944 -481 -1300 -39 -59 -69 -112 -67
-117 4 -12 32 -4 32 9 0 4 24 46 54 92 272 416 452 939 507 1472 14 142 14
499 0 640 -27 261 -82 512 -168 765 -39 117 -208 548 -218 558 -2 2 -5 -5 -7
-15z"/>
<path d="M7185 1668 c-110 -27 -203 -53 -208 -57 -4 -4 15 -58 43 -120 27 -62
47 -118 43 -124 -3 -6 -1 -7 5 -3 7 4 12 3 12 -1 0 -5 30 -61 66 -124 36 -62
66 -119 67 -126 0 -7 4 -10 8 -8 8 6 42 -44 42 -62 0 -6 3 -11 6 -10 3 1 28
-22 55 -51 l49 -52 172 0 173 0 -45 68 c-97 143 -202 394 -265 634 l-23 87
-200 -51z"/>
<path d="M8654 1429 c-57 -61 -211 -184 -314 -252 -169 -111 -303 -174 -480
-222 l-85 -24 492 0 491 -1 47 35 c25 20 50 33 56 30 5 -4 8 -2 7 4 -3 8 105
100 250 213 l35 28 -226 110 c-125 60 -230 110 -235 110 -4 0 -21 -14 -38 -31z"/>
<path d="M8894 1014 c-18 -14 -18 -15 4 -4 12 6 22 13 22 15 0 8 -5 6 -26 -11z"/>
</g>
</svg>
